# Blender 3.5.1
# www.blender.org
mtllib flecha.mtl
o Cube.001
v 9.725298 17.960085 0.999999
v 9.725298 17.960083 -1.000001
v -1.000000 17.960083 1.000000
v -1.000000 17.960083 -1.000000
v 9.725298 15.960083 0.999999
v 9.725298 15.960083 -1.000001
v -1.000000 15.960083 1.000000
v -1.000000 15.960083 -1.000000
v 9.725298 20.960083 0.999999
v 9.725298 20.960083 -1.000001
v 9.725298 12.960084 -1.000001
v 9.725298 12.960084 0.999999
v 17.735857 16.960083 -1.000000
v 17.735857 16.960083 1.000000
v -1.000000 16.960083 1.000000
v -1.000000 16.960083 -1.000000
v 9.725298 16.960083 0.999999
v 9.725298 16.960083 -1.000001
v 9.725298 16.960083 0.999999
v 9.725298 16.960083 -1.000001
vn -0.0000 1.0000 -0.0000
vn -1.0000 -0.0000 -0.0000
vn -0.0000 -1.0000 -0.0000
vn -0.0000 -0.0000 1.0000
vn -0.0000 -0.0000 -1.0000
vn 0.4467 -0.8947 -0.0000
vn -0.0001 1.0000 -0.0000
vn 1.0000 -0.0000 -0.0000
vn 0.4467 0.8947 -0.0000
vt 1.995282 10.700000
vt 4.000000 0.000000
vt 0.375000 0.000000
vt 6.019750 5.974277
vt 0.000000 10.700000
vt 6.016808 8.008275
vt 2.000000 0.000000
vt 0.625000 0.000000
vt 1.995283 0.000000
vt 16.956148 5.974280
vt 0.000000 2.000000
vt 16.958454 8.008275
vt 0.000000 0.000000
vt 0.000000 10.700000
vt 2.000000 2.999999
vt 6.019750 8.013648
vt 0.375000 0.750000
vt 1.995283 10.700000
vt 0.000000 2.999999
vt 0.625000 0.750000
vt 6.016808 5.967933
vt 2.000000 2.000000
vt 0.000000 0.000000
vt 16.956148 8.013648
vt 2.000000 0.000000
vt 1.995283 0.000000
vt 16.958454 5.967933
vt 4.000000 2.999999
vt 0.375000 0.000000
vt 0.000002 17.999998
vt 6.019750 2.915234
vt 2.000000 2.999999
vt 0.625000 0.000000
vt 2.010339 17.999998
vt 6.016808 11.068792
vt 0.000000 0.000000
vt 2.010339 0.000000
vt 0.625000 0.750000
vt 6.016808 2.907417
vt 2.000000 0.000000
vt 0.000003 0.000000
vt 0.375000 0.750000
vt 6.019750 11.072697
vt 2.010338 9.000000
vt -2.155338 6.988104
vt 0.000000 9.000000
vt -2.148477 6.993967
vt 16.956148 6.993964
vt 1.000000 2.000000
vt 16.958454 6.988104
vt 1.000000 0.000000
vt 0.375000 0.750000
vt 0.375000 0.000000
vt 6.019750 6.993964
vt 0.625000 0.000000
vt 0.625000 0.750000
vt 6.016808 6.988104
vt 0.375000 0.750000
vt 0.375000 0.000000
vt 6.019750 6.993964
vt 0.625000 0.000000
vt 0.625000 0.750000
vt 6.016808 6.988104
s 0
usemtl Material
f 1/1/1 2/5/1 4/13/1 3/9/1
f 15/49/2 16/51/2 8/25/2 7/22/2
f 7/23/3 8/26/3 6/18/3 5/14/3
f 5/15/2 6/19/2 11/36/2 12/40/2
f 15/48/4 7/24/4 5/16/4 17/54/4
f 16/50/5 4/12/5 2/6/5 18/57/5
f 12/41/6 11/37/6 13/44/6 14/46/6
f 2/7/2 1/2/2 9/28/2 10/32/2
f 17/52/4 5/17/4 12/42/4 19/58/4
f 18/55/1 2/8/1 10/33/7 20/61/5
f 6/20/8 18/56/5 20/62/8 11/38/8
f 1/3/1 17/53/5 19/59/1 9/29/7
f 8/27/5 16/50/5 18/57/5 6/21/5
f 3/10/4 15/48/4 17/54/4 1/4/4
f 3/11/2 4/13/2 16/51/2 15/49/2
f 9/30/9 14/46/9 13/44/9 10/34/9
f 10/35/5 13/45/5 11/39/5 20/63/5
f 12/43/4 14/47/4 9/31/4 19/60/4
